# xmcd CD database file
#
# Track frame offsets:
#	150
#	32494
#	47542
#	79058
#	96910
#	115173
#	160970
#	192555
#	214999
#	243964
#	264777
#
# Disc length: 3886 seconds
#
# Revision: 0
# Processed by: cddbd v1.5.2PL0 Copyright (c) Steve Scherf et al.
# Submitted via: CDex 1.70beta2
#
DISCID=8c0f2c0b
DTITLE=Dr. Michael White - Jazz from the Soul of New Orleans
DYEAR=2002
DGENRE=Jazz
TTITLE0=Hindustan
TTITLE1=If We Ever Needed Jesus
TTITLE2=Summertime
TTITLE3=Martinique
TTITLE4=In The Beautiful Garden of Prayer
TTITLE5=Fidgety Feet
TTITLE6=Horn Man Blues
TTITLE7=Caribbean Girl (A New Orleans Calypso)
TTITLE8=Late Night Blues
TTITLE9=Red Wing
TTITLE10=In The Sweet Bye and Bye
EXTD=YEAR: 2002
EXTT0=
EXTT1=
EXTT2=
EXTT3=
EXTT4=
EXTT5=
EXTT6=
EXTT7=
EXTT8=
EXTT9=
EXTT10=
PLAYORDER=
